<svg xmlns="http://www.w3.org/2000/svg" viewBox="0 0 500 500"><g id="Layer_1" data-name="Layer 1"><path d="M250,235a72,72,0,1,1-72,72,72.08,72.08,0,0,1,72-72m0-8a80,80,0,1,0,80,80,80,80,0,0,0-80-80Z"/></g><g id="crown_trace" data-name="crown trace"><path d="M203.51,198a4,4,0,0,1-3.66-2.4l-.08-.18-28-72.48a4,4,0,0,1,6.18-4.6l40,31,28.7-61.76a4,4,0,0,1,3.63-2.32h0a4,4,0,0,1,3.63,2.34l27.85,61,41.34-31.3a4,4,0,0,1,6.14,4.64l-28.49,73.48s-.05.11-.07.17a4,4,0,0,1-1.9,2h0l-.36.16h0a4.15,4.15,0,0,1-1.48.25h-93.4Zm66.72-8h20.7l-12.39-28.93-23.07,17.47Zm-29.9,0h16.85l-8.32-6.46Zm-30.82,0h17.57l15.24-11.54L221.13,162Zm75.6-33.9,11.7,27.31,19.86-51.21ZM184.42,133.49l19.23,49.76,10.93-26.33Zm40,20.93,24.52,19,26.28-19.91-25-54.68Z"/></g></svg>