<svg xmlns="http://www.w3.org/2000/svg" viewBox="0 0 500 500"><defs><style>.cls-1,.cls-2{fill:none;stroke:#000;stroke-miterlimit:10;}.cls-1{stroke-width:1.08px;}.cls-2{stroke-width:3.25px;}</style></defs><g id="Layer_1" data-name="Layer 1"><path d="M177.47,262.52c0,10.4-8.78,19-19.46,19s-19.45-8.56-19.45-19,8.78-18.91,19.45-18.91S177.47,252.12,177.47,262.52Zm-37.82,0c0,9.81,8.29,17.88,18.36,17.88s18.37-8.07,18.37-17.88-8.29-17.83-18.37-17.83S139.65,252.71,139.65,262.52Z"/><path d="M216,280.4v1.08H198V243.61H199V280.4Z"/><path d="M235.4,281.48V243.61h1.08v37.87Z"/><path d="M306,281.48V243.61H307v37.87Z"/><path d="M152.68,334.44l-12,13.06v14.62h-3.27V307.77h3.27v35l32.5-35h4l-22.16,24.1L179,362.12h-4.12Z"/><path d="M206,362.12V307.77h3.26v54.35Z"/><path d="M282.93,362.12,246.7,312.74v49.38h-3.27V307.77h3.81l36.31,49.37V307.77h3.19v54.35Z"/><path d="M362.56,335.45v19.67a30,30,0,0,1-19.29,7.08c-15.47,0-28.07-12.21-28.07-27.3s12.68-27.21,28.23-27.21a29.07,29.07,0,0,1,19.13,7.15l-1.94,2.41a25.87,25.87,0,0,0-17.19-6.45c-13.76,0-25,10.81-25,24.1s11.2,24.19,25,24.19a26.28,26.28,0,0,0,16.17-5.6v-18Z"/><path d="M270.62,281.48,254.8,243.61H256l15.18,36.63,15.11-36.63h1.3l-15.82,37.87Z"/><line class="cls-1" x1="286.77" y1="243.94" x2="266.52" y2="269.63"/><path d="M342.8,243.61,327,281.48h1.24l15.18-36.63,15.11,36.63h1.3L344,243.61Z"/><line class="cls-1" x1="358.95" y1="281.15" x2="338.7" y2="255.46"/><line class="cls-2" x1="175.49" y1="360.63" x2="141.34" y2="346.01"/><line class="cls-2" x1="283.87" y1="360.83" x2="245.04" y2="331.55"/></g><g id="crown_trace" data-name="crown trace"><path d="M325.9,140.49a1.5,1.5,0,0,0-1.81,0l-43.82,33.18-29.15-63.79a1.48,1.48,0,0,0-1.36-.88h0a1.49,1.49,0,0,0-1.36.87l-30,64.6-42.46-33a1.5,1.5,0,0,0-2.32,1.73l28,72.49,0,.07a1.48,1.48,0,0,0,.77.77h0a1.39,1.39,0,0,0,.57.12h93.46a2,2,0,0,0,.52-.09h0l.2-.08a1.51,1.51,0,0,0,.69-.74l0-.06,28.5-73.49A1.5,1.5,0,0,0,325.9,140.49Zm-76.15-26.41,28.07,61.44-29.41,22.27-27.6-21.43Zm-71.4,33.1,38.77,30.12-14.06,33.85Zm49.07,66.51H205.26l14.32-34.49,26.35,20.47Zm5,0,16-12.12L264,213.69Zm36.49,0-18-14,28.22-21.36,15.15,35.35Zm27.56-2.47-14.89-34.75,40.15-30.4Z"/></g></svg>